<?xml version="1.0" encoding="UTF-8"?>
<svg id="_Слой_2" data-name="Слой 2" xmlns="http://www.w3.org/2000/svg" viewBox="0 0 925.41 991.28">
  <defs>
    <style>
      .cls-1 {
        fill: #ddd;
      }

      .cls-2 {
        fill: none;
        stroke: #333;
        stroke-width: 3px;
      }
    </style>
  </defs>
  <g id="svg472">
    <g>
      <g>
        <polygon class="cls-1" points="194.62 362.53 194.34 364.27 192.97 381.35 192.89 398.93 193.73 411.11 194.13 416.88 196.65 435.16 200.47 453.65 205.54 472.27 211.86 490.93 219.38 509.54 228.08 528.01 233.07 537.26 237.91 546.23 248.82 564.14 254.3 572.18 260.76 581.64 273.67 598.65 287.49 615.07 302.16 630.85 310.03 638.52 317.58 645.88 333.71 660.11 350.45 673.46 367.72 685.87 368.29 686.24 385.45 697.28 401.03 706.2 403.54 707.63 421.9 716.87 440.45 724.96 448.45 727.92 459.1 731.85 477.75 737.52 496.31 741.94 514.7 745.08 532.82 746.92 550.59 747.47 567.92 746.72 584.72 744.67 592.78 743.01 600.92 741.33 616.42 736.71 631.17 730.85 645.08 723.76 658.1 715.49 662.17 712.3 670.14 706.07 681.17 695.56 691.12 683.99 699.94 671.42 704.53 663.7 598.94 601.33 620.06 535.42 695.75 580.13 725.65 597.79 727.15 580.75 727.36 563.24 726.26 545.31 723.88 527.06 720.2 508.59 715.26 489.97 709.07 471.31 701.67 452.7 694.81 437.7 694.81 437.69 737.11 419.92 743.57 433.03 753.36 455.28 761.72 477.65 768.61 500.03 770.97 509.77 774 522.32 777.84 544.4 780.15 566.17 780.84 585.83 780.9 587.51 780.09 608.34 777.71 628.55 800.38 641.93 822.21 654.82 831.59 660.36 838.63 638.39 924.2 754.25 803.44 748.24 810.47 726.27 756.6 694.45 748.37 708.96 737.84 724.09 725.96 738.02 712.79 750.71 698.39 762.07 682.83 772.07 666.18 780.63 648.53 787.73 629.96 793.34 610.56 797.43 590.43 799.96 569.66 800.93 548.36 800.34 526.63 798.2 504.58 794.5 482.31 789.28 459.93 782.54 437.55 774.33 415.29 764.7 393.24 753.67 371.51 741.3 350.22 727.68 329.46 712.83 309.34 696.87 289.96 679.84 271.4 661.84 253.76 642.96 237.13 623.28 221.58 602.89 207.2 581.93 194.04 560.46 182.19 538.59 171.69 516.45 162.6 494.13 154.95 471.73 148.78 449.38 144.18 427.36 155.93 406.79 171.89 381.97 189.25 357.78 196.94 348.12 194.62 362.53"/>
        <polygon class="cls-1" points="924.2 754.25 893.33 785.12 772.57 779.11 803.44 748.24 924.2 754.25"/>
        <polygon class="cls-1" points="196.94 348.12 189.25 357.78 171.89 381.97 155.93 406.79 144.18 427.36 141.46 432.12 128.54 457.83 118.23 481.53 117.24 483.81 107.6 509.91 99.69 536.02 93.53 562.01 89.15 587.75 86.58 613.11 85.84 637.99 86.91 662.23 89.81 685.75 94.51 708.41 100.98 730.11 109.22 750.74 119.15 770.21 130.75 788.41 140.52 800.89 143.95 805.26 158.7 820.68 174.91 834.58 192.52 846.92 211.42 857.61 231.54 866.62 252.77 873.9 275.01 879.4 298.15 883.11 322.08 885.01 346.69 885.09 370.63 883.47 385.61 796.12 407.85 805.67 430.23 813.8 433.56 814.79 433.54 814.87 430.5 832.58 423.32 874.43 449.4 867.3 475.52 858.44 501.57 847.88 527.41 835.69 534.93 831.81 534.93 831.67 539.9 831.79 560.63 830.73 580.72 828.12 600.08 823.96 618.61 818.27 636.21 811.08 652.8 802.44 668.31 792.38 682.64 780.94 682.65 780.95 672.98 789.83 646.59 811.78 619.28 832.26 591.19 851.18 562.48 868.44 533.26 883.96 503.68 897.66 473.89 909.48 444.04 919.36 414.26 927.25 405.07 980.77 352.38 989.8 361.57 936.28 355.52 936.91 326.85 938.64 324.98 938.62 298.82 938.28 271.57 935.84 245.25 931.34 219.97 924.78 195.87 916.21 173.05 905.67 151.62 893.2 131.7 878.87 113.38 862.75 110.96 860.16 96.76 844.92 81.9 825.45 68.89 804.46 57.77 782.04 48.62 758.3 41.47 733.35 36.37 707.32 33.32 680.33 32.37 652.52 33.49 624.02 36.69 594.96 41.95 565.5 49.25 535.78 58.55 505.93 69.8 476.11 82.97 446.45 97.96 417.11 114.73 388.23 133.16 359.95 153.2 332.4 174.74 305.72 197.66 280.05 221.86 255.5 247.22 232.19 273.62 210.24 300.92 189.76 329.01 170.84 357.72 153.58 386.95 138.06 416.52 124.36 446.31 112.54 476.17 102.66 505.94 94.78 515.12 41.26 515.13 41.26 567.79 32.41 564.34 52.48 558.64 85.73 572.93 84.41 601.44 83.27 629.25 84.22 656.24 87.25 682.28 92.35 707.24 99.48 730.99 108.61 753.42 119.71 774.42 132.72 793.89 147.57 809.25 161.87 811.74 164.19 827.87 182.49 842.21 202.4 854.69 223.82 865.24 246.62 873.83 270.73 880.39 296 884.91 322.31 887.36 349.55 887.73 377.57 886.01 406.25 882.22 435.43 876.37 464.99 868.5 494.76 858.64 524.62 846.83 554.41 833.14 583.98 817.63 613.2 800.38 641.93 777.71 628.55 780.09 608.34 780.9 587.51 780.84 585.83 780.9 585.83 793.57 560.07 804.61 534.07 813.97 507.96 821.61 481.86 827.49 455.89 831.58 430.21 833.86 404.91 834.31 380.13 832.95 355.99 829.77 332.61 824.78 310.09 818.02 288.55 809.52 268.1 799.32 248.83 787.45 230.83 774 214.21 759.02 199.03 750.14 191.65 742.58 185.36 724.77 173.29 705.66 162.86 685.36 154.12 663.96 147.13 641.57 141.91 618.3 138.48 594.25 136.88 569.55 137.08 549.58 138.55 536.96 212.11 528.83 259.47 521.04 304.89 513.98 346.03 509.3 373.31 782.38 400.89 737.11 419.92 694.81 437.69 656.39 453.84 394.67 563.81 341.42 586.19 470.53 599.24 448.45 727.92 440.45 724.96 421.9 716.87 403.54 707.63 401.03 706.2 410.9 648.71 375.36 645.12 310.03 638.52 302.16 630.85 287.49 615.07 273.67 598.65 260.76 581.64 254.3 572.18 578.78 435.83 494.67 427.33 494.66 427.33 449.67 422.79 496.88 147.6 470.81 154.72 458.79 158.8 444.69 163.59 430.84 169.19 418.63 174.13 392.79 186.34 367.28 200.11 343.82 214.43 342.21 215.41 317.72 232.14 297.01 247.88 293.91 250.23 270.93 269.59 248.86 290.13 232.75 306.68 227.82 311.74 207.92 334.33 196.94 348.12"/>
        <polygon class="cls-1" points="838.63 638.39 831.59 660.36 822.21 654.82 838.63 638.39"/>
        <polygon class="cls-1" points="832.95 355.99 834.31 380.13 833.86 404.91 831.58 430.21 827.49 455.89 821.61 481.86 813.97 507.96 804.61 534.07 793.57 560.07 780.9 585.83 780.84 585.83 780.15 566.17 777.84 544.4 774 522.32 770.97 509.77 771.13 509.73 780.92 483.63 789 457.52 795.32 431.51 799.85 405.74 802.59 380.33 803.51 355.41 802.59 331.1 799.86 307.52 795.33 284.78 789.01 262.99 780.94 242.25 771.16 222.67 759.71 204.35 750.14 191.65 759.02 199.03 774 214.21 787.45 230.83 799.32 248.83 809.52 268.1 818.02 288.55 824.78 310.09 829.77 332.61 832.95 355.99"/>
        <polygon class="cls-1" points="810.47 726.27 803.44 748.24 772.57 779.11 779.6 757.14 810.47 726.27"/>
        <polygon class="cls-1" points="733.56 729.94 726.07 738.12 725.96 738.02 737.84 724.09 748.37 708.96 756.6 694.45 810.47 726.27 779.6 757.14 733.56 729.94"/>
        <polygon class="cls-1" points="809.35 161.76 809.25 161.87 793.89 147.57 774.42 132.72 753.42 119.71 730.99 108.61 707.24 99.48 682.28 92.35 656.24 87.25 629.25 84.22 601.44 83.27 572.93 84.41 558.64 85.73 564.34 52.48 564.35 52.48 566.62 52.44 594.54 53.1 621.66 55.84 647.84 60.64 672.95 67.49 696.88 76.36 719.5 87.18 740.71 99.93 760.4 114.52 778.48 130.89 809.35 161.76"/>
        <polygon class="cls-1" points="704.19 365.24 751.51 370.02 782.38 400.89 509.3 373.31 513.98 346.03 579.51 352.65 644.58 359.22 704.19 365.24"/>
        <polygon class="cls-1" points="726.26 545.31 727.36 563.24 727.15 580.75 725.65 597.79 695.75 580.13 693.64 561.95 690.25 543.52 685.58 524.93 679.66 506.27 672.52 487.64 664.2 469.11 656.39 453.84 694.81 437.69 694.81 437.7 701.67 452.7 709.07 471.31 715.26 489.97 720.2 508.59 723.88 527.06 726.26 545.31"/>
        <polygon class="cls-1" points="682.64 780.94 668.31 792.38 652.8 802.44 636.21 811.08 618.61 818.27 600.08 823.96 580.72 828.12 560.63 830.73 539.9 831.79 534.93 831.67 518.62 831.28 496.91 829.22 474.87 825.6 458.85 821.89 452.61 820.45 433.56 814.79 430.23 813.8 407.85 805.67 385.61 796.12 385.58 796.1 363.52 785.15 352.45 778.89 341.77 772.85 320.45 759.29 299.66 744.52 279.51 728.6 260.08 711.62 241.48 693.67 223.8 674.83 207.1 655.19 191.5 634.85 185.26 625.81 177.05 613.91 172.5 606.52 163.84 592.46 152.24 571.22 151.91 570.62 141.34 548.49 132.17 526.17 124.44 503.78 118.23 481.53 128.54 457.83 141.46 432.12 144.18 427.36 148.78 449.38 154.95 471.73 162.6 494.13 171.69 516.45 182.19 538.59 194.04 560.46 207.2 581.93 221.58 602.89 237.13 623.28 253.76 642.96 271.4 661.84 289.96 679.84 309.34 696.87 329.46 712.83 350.22 727.68 371.51 741.3 393.24 753.67 415.29 764.7 437.55 774.33 459.93 782.54 482.31 789.28 504.58 794.5 526.63 798.2 548.36 800.34 569.66 800.93 590.43 799.96 610.56 797.43 629.96 793.34 648.53 787.73 666.18 780.63 682.83 772.07 698.39 762.07 712.79 750.71 725.96 738.02 726.07 738.12 722.54 741.97 698.34 766.52 682.65 780.95 682.64 780.94"/>
        <polygon class="cls-1" points="704.53 663.7 699.94 671.42 691.12 683.99 681.17 695.56 670.14 706.07 662.17 712.3 666.85 705.7 671.48 698.35 673.66 694.57 704.53 663.7"/>
        <polygon class="cls-1" points="704.53 663.7 673.66 694.57 656.69 684.54 568.07 632.2 598.94 601.33 704.53 663.7"/>
        <polygon class="cls-1" points="689.08 344.63 704.19 365.24 644.58 359.22 630.65 342.89 615.87 327.22 600.33 312.3 584.11 298.19 567.29 284.97 549.95 272.7 532.16 261.44 528.83 259.47 536.96 212.11 556.8 223.98 577.9 238.08 598.42 253.35 618.28 269.73 637.36 287.14 655.58 305.48 672.85 324.68 689.08 344.63"/>
        <polygon class="cls-1" points="673.66 694.57 671.48 698.35 666.85 705.7 662.17 712.3 658.1 715.49 645.08 723.76 631.17 730.85 616.42 736.71 600.92 741.33 592.78 743.01 615.6 724.03 637.78 703.63 656.69 684.54 673.66 694.57"/>
        <polygon class="cls-1" points="630.65 342.89 644.58 359.22 579.51 352.65 563.73 338.01 547.28 324.21 530.26 311.33 521.04 304.89 528.83 259.47 532.16 261.44 549.95 272.7 567.29 284.97 584.11 298.19 600.33 312.3 615.87 327.22 630.65 342.89"/>
        <polygon class="cls-1" points="620.06 535.42 598.94 601.33 568.07 632.2 589.19 566.29 620.06 535.42"/>
        <polygon class="cls-1" points="578.78 435.83 254.3 572.18 248.82 564.14 237.91 546.23 233.07 537.26 494.66 427.33 494.67 427.33 578.78 435.83"/>
        <polygon class="cls-1" points="567.82 32.21 567.79 32.41 515.13 41.26 515.12 41.26 484.26 10.39 537.13 1.52 567.82 32.21"/>
        <polygon class="cls-1" points="534.93 831.67 534.93 831.81 527.41 835.69 501.57 847.88 475.52 858.44 449.4 867.3 423.32 874.43 430.5 832.58 441.84 828.6 453.16 824.3 458.82 822.04 458.85 821.89 474.87 825.6 496.91 829.22 518.62 831.28 534.93 831.67"/>
        <polygon class="cls-1" points="484.26 10.39 515.12 41.26 505.94 94.78 475.07 63.91 484.26 10.39"/>
        <polygon class="cls-1" points="505.94 94.78 476.17 102.66 446.31 112.54 416.52 124.36 386.95 138.06 357.72 153.58 329.01 170.84 300.92 189.76 273.62 210.24 247.22 232.19 221.86 255.5 197.66 280.05 174.74 305.72 153.2 332.4 133.16 359.95 114.73 388.23 97.96 417.11 82.97 446.45 69.8 476.11 58.55 505.93 49.25 535.78 41.95 565.5 36.69 594.96 33.49 624.02 32.37 652.52 33.32 680.33 36.37 707.32 41.47 733.35 48.62 758.3 57.77 782.04 68.89 804.46 81.9 825.45 96.76 844.92 110.96 860.16 110.85 860.26 79.98 829.39 65.89 814.05 51.03 794.58 38.02 773.59 26.9 751.17 17.75 727.43 10.6 702.48 5.5 676.45 2.46 649.46 1.5 621.65 2.62 593.15 5.82 564.09 11.08 534.63 18.38 504.91 27.68 475.06 38.93 445.24 52.1 415.58 67.1 386.24 83.86 357.36 89.1 349.32 102.29 329.08 113.01 314.35 122.34 301.53 143.87 274.85 155.93 261.34 166.79 249.18 190.99 224.63 216.35 201.32 242.75 179.37 270.05 158.89 298.14 139.97 326.85 122.72 356.08 107.2 385.65 93.49 415.44 81.67 445.3 71.8 475.07 63.91 505.94 94.78"/>
        <polygon class="cls-1" points="496.88 147.6 449.67 422.79 418.8 391.92 440.9 263.09 447.57 224.2 455.79 176.27 458.79 158.8 470.81 154.72 496.88 147.6"/>
        <polygon class="cls-1" points="470.53 599.24 341.42 586.19 394.67 563.81 439.66 568.37 470.53 599.24"/>
        <polygon class="cls-1" points="455.79 176.27 447.57 224.2 428.98 219.44 410.53 215.94 392.33 213.73 374.45 212.83 357 213.22 343.82 214.43 367.28 200.11 392.79 186.34 418.63 174.13 430.84 169.19 435.56 170.39 445.67 173.18 455.79 176.27"/>
        <polygon class="cls-1" points="447.57 224.2 440.9 263.09 422.24 256.72 403.62 251.59 385.11 247.71 366.83 245.13 348.85 243.83 331.26 243.84 314.14 245.15 297.6 247.76 297.01 247.88 317.72 232.14 342.21 215.41 343.82 214.43 357 213.22 374.45 212.83 392.33 213.73 410.53 215.94 428.98 219.44 447.57 224.2"/>
        <polygon class="cls-1" points="410.9 648.71 401.03 706.2 385.45 697.28 368.29 686.24 375.36 645.12 410.9 648.71"/>
        <polygon class="cls-1" points="385.58 796.1 385.61 796.12 370.63 883.47 339.76 852.6 352.37 779.04 352.45 778.89 363.52 785.15 385.58 796.1"/>
        <polygon class="cls-1" points="293.55 316.46 379.12 432.31 258.36 426.31 265.4 404.33 194.62 362.53 196.94 348.12 207.92 334.33 227.82 311.74 232.75 306.68 277.13 332.89 286.51 338.43 293.55 316.46"/>
        <polygon class="cls-1" points="379.12 432.31 348.25 463.18 227.49 457.18 258.36 426.31 379.12 432.31"/>
        <polygon class="cls-1" points="370.63 883.47 346.69 885.09 322.08 885.01 298.15 883.11 275.01 879.4 252.77 873.9 231.54 866.62 211.42 857.61 192.52 846.92 174.91 834.58 158.7 820.68 143.95 805.26 140.52 800.89 157.12 813.11 175.71 824.23 195.53 833.66 216.5 841.37 238.49 847.32 261.42 851.49 285.16 853.84 309.61 854.37 334.64 853.08 339.76 852.6 370.63 883.47"/>
        <polygon class="cls-1" points="361.57 936.28 352.38 989.8 321.51 958.93 324.98 938.68 324.98 938.62 326.85 938.64 355.52 936.91 361.57 936.28"/>
        <polygon class="cls-1" points="293.55 316.46 286.51 338.43 277.13 332.89 277.13 332.88 293.55 316.46"/>
        <polygon class="cls-1" points="265.4 404.33 258.36 426.31 227.49 457.18 234.53 435.2 265.4 404.33"/>
        <polygon class="cls-1" points="265.4 404.33 234.53 435.2 193.73 411.11 192.89 398.93 192.97 381.35 194.34 364.27 194.62 362.53 265.4 404.33"/>
        <polygon class="cls-1" points="177.05 613.91 185.26 625.81 185.14 625.9 137.82 621.12 172.37 606.6 172.5 606.52 177.05 613.91"/>
        <polygon class="cls-1" points="163.84 592.46 172.5 606.52 172.37 606.6 137.82 621.12 106.95 590.25 152.23 571.23 152.24 571.22 163.84 592.46"/>
        <polygon class="cls-1" points="155.93 261.34 143.87 274.85 122.34 301.53 113.01 314.35 112.84 314.23 53.87 279.4 74.98 213.49 155.77 261.2 155.93 261.34"/>
        <polygon class="cls-1" points="113.01 314.35 102.29 329.08 89.1 349.32 88.95 349.22 23 310.27 53.87 279.4 112.84 314.23 113.01 314.35"/>
        <polygon class="cls-1" points="74.98 213.49 53.87 279.4 23 310.27 44.11 244.36 74.98 213.49"/>
      </g>
      <g>
        <polyline class="cls-2" points="549.58 138.55 536.96 212.11 528.83 259.47 521.04 304.89 513.98 346.03 509.3 373.31"/>
        <polyline class="cls-2" points="749.48 190.77 750.14 191.65 759.71 204.35 771.16 222.67 780.94 242.25 789.01 262.99 795.33 284.78 799.86 307.52 802.59 331.1 803.51 355.41 802.59 380.33 799.85 405.74 795.32 431.51 789 457.52 780.92 483.63 771.13 509.73"/>
        <polyline class="cls-2" points="656.69 684.54 637.78 703.63 615.6 724.03 592.78 743.01 592.5 743.24"/>
        <polyline class="cls-2" points="458.82 822.04 453.16 824.3 441.84 828.6 430.5 832.58"/>
        <polyline class="cls-2" points="534.93 831.81 527.41 835.69 501.57 847.88 475.52 858.44 449.4 867.3 423.32 874.43"/>
        <polyline class="cls-2" points="549.58 138.55 569.55 137.08 594.25 136.88 618.3 138.48 641.57 141.91 663.96 147.13 685.36 154.12 705.66 162.86 724.77 173.29 742.58 185.36 750.14 191.65 759.02 199.03 774 214.21 787.45 230.83 799.32 248.83 809.52 268.1 818.02 288.55 824.78 310.09 829.77 332.61 832.95 355.99 834.31 380.13 833.86 404.91 831.58 430.21 827.49 455.89 821.61 481.86 813.97 507.96 804.61 534.07 793.57 560.07 780.9 585.83"/>
        <polyline class="cls-2" points="470.53 599.24 448.45 727.92 448.43 728.06"/>
        <polyline class="cls-2" points="433.54 814.87 430.5 832.58 423.32 874.43"/>
        <polyline class="cls-2" points="439.66 568.37 394.67 563.81 394.66 563.81"/>
        <line class="cls-2" x1="439.66" y1="568.37" x2="470.53" y2="599.24"/>
        <line class="cls-2" x1="341.42" y1="586.19" x2="470.53" y2="599.24"/>
        <polyline class="cls-2" points="782.38 400.89 737.11 419.92 694.81 437.69 656.39 453.84 394.67 563.81 341.42 586.19"/>
        <polyline class="cls-2" points="751.51 370.02 704.19 365.24 644.58 359.22 579.51 352.65 513.98 346.03"/>
        <line class="cls-2" x1="751.51" y1="370.02" x2="782.38" y2="400.89"/>
        <line class="cls-2" x1="509.3" y1="373.31" x2="782.38" y2="400.89"/>
        <polyline class="cls-2" points="458.83 158.57 458.79 158.8 455.79 176.27 447.57 224.2 440.9 263.09 418.8 391.92"/>
        <line class="cls-2" x1="449.67" y1="422.79" x2="496.88" y2="147.6"/>
        <line class="cls-2" x1="418.8" y1="391.92" x2="449.67" y2="422.79"/>
        <line class="cls-2" x1="494.66" y1="427.33" x2="449.67" y2="422.79"/>
        <line class="cls-2" x1="578.78" y1="435.83" x2="494.67" y2="427.33"/>
        <polyline class="cls-2" points="494.67 427.33 494.66 427.33 233.07 537.26 232.94 537.31"/>
        <line class="cls-2" x1="152.23" y1="571.23" x2="106.95" y2="590.25"/>
        <line class="cls-2" x1="137.82" y1="621.12" x2="172.37" y2="606.6"/>
        <polyline class="cls-2" points="254.18 572.23 254.3 572.18 578.78 435.83"/>
        <line class="cls-2" x1="106.95" y1="590.25" x2="137.82" y2="621.12"/>
        <polyline class="cls-2" points="410.9 648.71 375.36 645.12 310.03 638.52 309.82 638.5"/>
        <line class="cls-2" x1="185.14" y1="625.9" x2="137.82" y2="621.12"/>
        <polyline class="cls-2" points="375.36 645.12 368.29 686.24 368.29 686.26"/>
        <line class="cls-2" x1="352.37" y1="779.04" x2="339.76" y2="852.6"/>
        <line class="cls-2" x1="370.63" y1="883.47" x2="385.61" y2="796.12"/>
        <polyline class="cls-2" points="401.02 706.27 401.03 706.2 410.9 648.71"/>
        <polyline class="cls-2" points="339.76 852.6 334.64 853.08 309.61 854.37 285.16 853.84 261.42 851.49 238.49 847.32 216.5 841.37 195.53 833.66 175.71 824.23 157.12 813.11 140.52 800.89 139.85 800.39"/>
        <line class="cls-2" x1="339.76" y1="852.6" x2="370.63" y2="883.47"/>
        <polyline class="cls-2" points="370.63 883.47 346.69 885.09 322.08 885.01 298.15 883.11 275.01 879.4 252.77 873.9 231.54 866.62 211.42 857.61 192.52 846.92 174.91 834.58 158.7 820.68 143.95 805.26 140.52 800.89 130.75 788.41 119.15 770.21 109.22 750.74 100.98 730.11 94.51 708.41 89.81 685.75 86.91 662.23 85.84 637.99 86.58 613.11 89.15 587.75 93.53 562.01 99.69 536.02 107.6 509.91 117.24 483.81 118.23 481.53 128.54 457.83 141.46 432.12 144.18 427.36 155.93 406.79 171.89 381.97 189.25 357.78 196.94 348.12 207.92 334.33 227.82 311.74 232.75 306.68 248.86 290.13 270.93 269.59 293.91 250.23 297.01 247.88 317.72 232.14 342.21 215.41 343.82 214.43 367.28 200.11 392.79 186.34 418.63 174.13 430.84 169.19 444.69 163.59 458.79 158.8 470.81 154.72 496.88 147.6"/>
        <line class="cls-2" x1="405.07" y1="980.77" x2="352.38" y2="989.8"/>
        <line class="cls-2" x1="414.26" y1="927.25" x2="405.07" y2="980.77"/>
        <polyline class="cls-2" points="564.35 52.48 566.62 52.44 594.54 53.1 621.66 55.84 647.84 60.64 672.95 67.49 696.88 76.36 719.5 87.18 740.71 99.93 760.4 114.52 778.48 130.89"/>
        <polyline class="cls-2" points="558.64 85.73 572.93 84.41 601.44 83.27 629.25 84.22 656.24 87.25 682.28 92.35 707.24 99.48 730.99 108.61 753.42 119.71 774.42 132.72 793.89 147.57 809.25 161.87 811.74 164.19 827.87 182.49 842.21 202.4 854.69 223.82 865.24 246.62 873.83 270.73 880.39 296 884.91 322.31 887.36 349.55 887.73 377.57 886.01 406.25 882.22 435.43 876.37 464.99 868.5 494.76 858.64 524.62 846.83 554.41 833.14 583.98 817.63 613.2 800.38 641.93"/>
        <polyline class="cls-2" points="733.56 729.94 726.07 738.12 722.54 741.97 698.34 766.52 682.65 780.95 672.98 789.83 646.59 811.78 619.28 832.26 591.19 851.18 562.48 868.44 533.26 883.96 503.68 897.66 473.89 909.48 444.04 919.36 414.26 927.25"/>
        <polyline class="cls-2" points="567.82 32.21 567.79 32.41 564.34 52.48 558.64 85.73"/>
        <polyline class="cls-2" points="537.39 1.48 537.13 1.52 484.26 10.39"/>
        <polyline class="cls-2" points="536.95 1.34 537.13 1.52 567.82 32.21"/>
        <polyline class="cls-2" points="515.13 41.26 567.79 32.41 568.16 32.35"/>
        <line class="cls-2" x1="475.07" y1="63.91" x2="484.26" y2="10.39"/>
        <polyline class="cls-2" points="484.26 10.39 515.12 41.26 515.13 41.26"/>
        <line class="cls-2" x1="505.94" y1="94.78" x2="515.12" y2="41.26"/>
        <polyline class="cls-2" points="79.98 829.39 65.89 814.05 51.03 794.58 38.02 773.59 26.9 751.17 17.75 727.43 10.6 702.48 5.5 676.45 2.46 649.46 1.5 621.65 2.62 593.15 5.82 564.09 11.08 534.63 18.38 504.91 27.68 475.06 38.93 445.24 52.1 415.58 67.1 386.24 83.86 357.36 89.1 349.32 102.29 329.08 113.01 314.35 122.34 301.53 143.87 274.85 155.93 261.34 166.79 249.18 190.99 224.63 216.35 201.32 242.75 179.37 270.05 158.89 298.14 139.97 326.85 122.72 356.08 107.2 385.65 93.49 415.44 81.67 445.3 71.8 475.07 63.91"/>
        <line class="cls-2" x1="475.07" y1="63.91" x2="505.94" y2="94.78"/>
        <polyline class="cls-2" points="361.57 936.28 355.52 936.91 326.85 938.64 324.98 938.62 298.82 938.28 271.57 935.84 245.25 931.34 219.97 924.78 195.87 916.21 173.05 905.67 151.62 893.2 131.7 878.87 113.38 862.75 110.96 860.16 96.76 844.92 81.9 825.45 68.89 804.46 57.77 782.04 48.62 758.3 41.47 733.35 36.37 707.32 33.32 680.33 32.37 652.52 33.49 624.02 36.69 594.96 41.95 565.5 49.25 535.78 58.55 505.93 69.8 476.11 82.97 446.45 97.96 417.11 114.73 388.23 133.16 359.95 153.2 332.4 174.74 305.72 197.66 280.05 221.86 255.5 247.22 232.19 273.62 210.24 300.92 189.76 329.01 170.84 357.72 153.58 386.95 138.06 416.52 124.36 446.31 112.54 476.17 102.66 505.94 94.78"/>
        <line class="cls-2" x1="321.51" y1="958.93" x2="352.38" y2="989.8"/>
        <line class="cls-2" x1="324.98" y1="938.68" x2="321.51" y2="958.93"/>
        <line class="cls-2" x1="352.38" y1="989.8" x2="361.57" y2="936.28"/>
        <polyline class="cls-2" points="296.83 247.91 297.01 247.88 297.6 247.76 314.14 245.15 331.26 243.84 348.85 243.83 366.83 245.13 385.11 247.71 403.62 251.59 422.24 256.72 440.9 263.09"/>
        <polyline class="cls-2" points="521.04 304.89 530.26 311.33 547.28 324.21 563.73 338.01 579.51 352.65"/>
        <polyline class="cls-2" points="656.39 453.84 664.2 469.11 672.52 487.64 679.66 506.27 685.58 524.93 690.25 543.52 693.64 561.95 695.75 580.13"/>
        <polyline class="cls-2" points="694.81 437.7 701.67 452.7 709.07 471.31 715.26 489.97 720.2 508.59 723.88 527.06 726.26 545.31 727.36 563.24 727.15 580.75 725.65 597.79"/>
        <polyline class="cls-2" points="528.83 259.47 532.16 261.44 549.95 272.7 567.29 284.97 584.11 298.19 600.33 312.3 615.87 327.22 630.65 342.89 644.58 359.22 644.59 359.23"/>
        <polyline class="cls-2" points="343.71 214.44 343.82 214.43 357 213.22 374.45 212.83 392.33 213.73 410.53 215.94 428.98 219.44 447.57 224.2"/>
        <polyline class="cls-2" points="620.06 535.42 695.75 580.13 725.65 597.79"/>
        <line class="cls-2" x1="589.19" y1="566.29" x2="568.07" y2="632.2"/>
        <line class="cls-2" x1="589.19" y1="566.29" x2="620.06" y2="535.42"/>
        <line class="cls-2" x1="598.94" y1="601.33" x2="620.06" y2="535.42"/>
        <polyline class="cls-2" points="568.07 632.2 656.69 684.54 673.66 694.57"/>
        <line class="cls-2" x1="568.07" y1="632.2" x2="598.94" y2="601.33"/>
        <line class="cls-2" x1="704.53" y1="663.7" x2="598.94" y2="601.33"/>
        <polyline class="cls-2" points="673.66 694.57 671.48 698.35 666.85 705.7 662.17 712.3 661.85 712.76"/>
        <line class="cls-2" x1="673.66" y1="694.57" x2="704.53" y2="663.7"/>
        <polyline class="cls-2" points="704.53 663.7 699.94 671.42 691.12 683.99 681.17 695.56 670.14 706.07 662.17 712.3 658.1 715.49 645.08 723.76 631.17 730.85 616.42 736.71 600.92 741.33 592.78 743.01 584.72 744.67 567.92 746.72 550.59 747.47 532.82 746.92 514.7 745.08 496.31 741.94 477.75 737.52 459.1 731.85 448.45 727.92 440.45 724.96 421.9 716.87 403.54 707.63 401.03 706.2 385.45 697.28 368.29 686.24 367.72 685.87 350.45 673.46 333.71 660.11 317.58 645.88 310.03 638.52 302.16 630.85 287.49 615.07 273.67 598.65 260.76 581.64 254.3 572.18 248.82 564.14 237.91 546.23 233.07 537.26 228.08 528.01 219.38 509.54 211.86 490.93 205.54 472.27 200.47 453.65 196.65 435.16 194.13 416.88 193.73 411.11 192.89 398.93 192.97 381.35 194.34 364.27 194.62 362.53 196.94 348.12 197 347.74"/>
        <polyline class="cls-2" points="691.16 772.95 682.64 780.94 668.31 792.38 652.8 802.44 636.21 811.08 618.61 818.27 600.08 823.96 580.72 828.12 560.63 830.73 539.9 831.79 534.93 831.67 518.62 831.28 496.91 829.22 474.87 825.6 458.85 821.89 452.61 820.45 433.56 814.79 430.23 813.8 407.85 805.67 385.61 796.12 385.58 796.1 363.52 785.15 352.45 778.89 341.77 772.85 320.45 759.29 299.66 744.52 279.51 728.6 260.08 711.62 241.48 693.67 223.8 674.83 207.1 655.19 191.5 634.85 185.26 625.81 177.05 613.91 172.5 606.52 163.84 592.46 152.24 571.22 151.91 570.62 141.34 548.49 132.17 526.17 124.44 503.78 118.23 481.53 118.2 481.42"/>
        <polyline class="cls-2" points="756.6 694.45 748.37 708.96 737.84 724.09 725.96 738.02 712.79 750.71 698.39 762.07 682.83 772.07 666.18 780.63 648.53 787.73 629.96 793.34 610.56 797.43 590.43 799.96 569.66 800.93 548.36 800.34 526.63 798.2 504.58 794.5 482.31 789.28 459.93 782.54 437.55 774.33 415.29 764.7 393.24 753.67 371.51 741.3 350.22 727.68 329.46 712.83 309.34 696.87 289.96 679.84 271.4 661.84 253.76 642.96 237.13 623.28 221.58 602.89 207.2 581.93 194.04 560.46 182.19 538.59 171.69 516.45 162.6 494.13 154.95 471.73 148.78 449.38 144.18 427.36 144.14 427.19"/>
        <polyline class="cls-2" points="733.28 729.78 733.56 729.94 779.6 757.14"/>
        <line class="cls-2" x1="810.47" y1="726.27" x2="756.6" y2="694.45"/>
        <line class="cls-2" x1="779.6" y1="757.14" x2="772.57" y2="779.11"/>
        <line class="cls-2" x1="779.6" y1="757.14" x2="810.47" y2="726.27"/>
        <line class="cls-2" x1="803.44" y1="748.24" x2="810.47" y2="726.27"/>
        <line class="cls-2" x1="893.33" y1="785.12" x2="772.57" y2="779.11"/>
        <line class="cls-2" x1="772.57" y1="779.11" x2="803.44" y2="748.24"/>
        <line class="cls-2" x1="924.2" y1="754.25" x2="803.44" y2="748.24"/>
        <line class="cls-2" x1="893.33" y1="785.12" x2="924.2" y2="754.25"/>
        <line class="cls-2" x1="838.63" y1="638.39" x2="924.2" y2="754.25"/>
        <line class="cls-2" x1="822.21" y1="654.82" x2="838.63" y2="638.39"/>
        <line class="cls-2" x1="831.59" y1="660.36" x2="838.63" y2="638.39"/>
        <polyline class="cls-2" points="777.71 628.55 800.38 641.93 822.21 654.82 831.59 660.36"/>
        <polyline class="cls-2" points="430.51 169.11 430.84 169.19 435.56 170.39 445.67 173.18 455.79 176.27"/>
        <polyline class="cls-2" points="536.96 212.11 556.8 223.98 577.9 238.08 598.42 253.35 618.28 269.73 637.36 287.14 655.58 305.48 672.85 324.68 689.08 344.63 704.19 365.24 704.2 365.25"/>
        <polyline class="cls-2" points="737.11 419.92 743.57 433.03 753.36 455.28 761.72 477.65 768.61 500.03 770.97 509.77 774 522.32 777.84 544.4 780.15 566.17 780.84 585.83 780.9 587.51 780.09 608.34 777.71 628.55"/>
        <line class="cls-2" x1="778.48" y1="130.89" x2="809.35" y2="161.76"/>
        <line class="cls-2" x1="79.98" y1="829.39" x2="110.85" y2="860.26"/>
        <line class="cls-2" x1="691.16" y1="772.95" x2="722.03" y2="742.08"/>
        <line class="cls-2" x1="74.98" y1="213.49" x2="155.77" y2="261.2"/>
        <line class="cls-2" x1="44.11" y1="244.36" x2="23" y2="310.27"/>
        <line class="cls-2" x1="44.11" y1="244.36" x2="74.98" y2="213.49"/>
        <line class="cls-2" x1="53.87" y1="279.4" x2="74.98" y2="213.49"/>
        <line class="cls-2" x1="23" y1="310.27" x2="88.95" y2="349.22"/>
        <line class="cls-2" x1="23" y1="310.27" x2="53.87" y2="279.4"/>
        <line class="cls-2" x1="112.84" y1="314.23" x2="53.87" y2="279.4"/>
        <polyline class="cls-2" points="193.58 411.02 193.73 411.11 234.53 435.2"/>
        <polyline class="cls-2" points="265.4 404.33 194.62 362.53 194.56 362.49"/>
        <line class="cls-2" x1="234.53" y1="435.2" x2="227.49" y2="457.18"/>
        <line class="cls-2" x1="234.53" y1="435.2" x2="265.4" y2="404.33"/>
        <line class="cls-2" x1="258.36" y1="426.31" x2="265.4" y2="404.33"/>
        <line class="cls-2" x1="348.25" y1="463.18" x2="227.49" y2="457.18"/>
        <line class="cls-2" x1="227.49" y1="457.18" x2="258.36" y2="426.31"/>
        <line class="cls-2" x1="379.12" y1="432.31" x2="258.36" y2="426.31"/>
        <line class="cls-2" x1="348.25" y1="463.18" x2="379.12" y2="432.31"/>
        <line class="cls-2" x1="293.55" y1="316.46" x2="379.12" y2="432.31"/>
        <line class="cls-2" x1="277.13" y1="332.88" x2="293.55" y2="316.46"/>
        <line class="cls-2" x1="286.51" y1="338.43" x2="293.55" y2="316.46"/>
        <polyline class="cls-2" points="232.64 306.61 232.75 306.68 277.13 332.89 286.51 338.43"/>
      </g>
    </g>
  </g>
</svg>